<?xml version="1.0" encoding="utf-8"?>
<!-- Generator: Adobe Illustrator 27.0.0, SVG Export Plug-In . SVG Version: 6.00 Build 0)  -->
<svg version="1.1" id="图层_1" xmlns="http://www.w3.org/2000/svg" xmlns:xlink="http://www.w3.org/1999/xlink" x="0px" y="0px"
	 viewBox="0 0 375 250" style="enable-background:new 0 0 375 250;" xml:space="preserve">
<style type="text/css">
	.st0{clip-path:url(#SVGID_00000098196318121430832040000010007194660656476043_);}
	.st1{fill:url(#SVGID_00000036931669916163571260000014612829870597894316_);}
	.st2{fill:url(#SVGID_00000168839768504848261720000015069264098405205385_);}
	.st3{fill:url(#SVGID_00000127014000371521775660000015221904126665433477_);}
	.st4{fill:url(#SVGID_00000170254244288859885930000012214031561313772964_);}
	.st5{fill:url(#SVGID_00000038387273763799999330000005993584513156198543_);}
	.st6{fill:#B3C2EC;}
	.st7{fill-rule:evenodd;clip-rule:evenodd;fill:url(#SVGID_00000137114050864653835320000006047704132134116506_);}
	.st8{fill-rule:evenodd;clip-rule:evenodd;fill:#BCD3FF;}
	.st9{fill-rule:evenodd;clip-rule:evenodd;fill:#689AF7;}
	.st10{fill-rule:evenodd;clip-rule:evenodd;fill:url(#SVGID_00000163781592877203545500000009497962144856117163_);}
	.st11{fill-rule:evenodd;clip-rule:evenodd;fill:#6C9EFC;}
	.st12{fill:url(#SVGID_00000109031050137568908070000000038597274233930910_);}
	.st13{fill:#F29700;}
	.st14{fill:#E50113;}
	.st15{fill-rule:evenodd;clip-rule:evenodd;fill:#EA6101;}
	.st16{fill-rule:evenodd;clip-rule:evenodd;fill:url(#SVGID_00000028288880105026935700000012384571041201667246_);}
	.st17{fill-rule:evenodd;clip-rule:evenodd;fill:url(#SVGID_00000056391838356241460460000009091004495060346806_);}
	.st18{fill-rule:evenodd;clip-rule:evenodd;fill:url(#SVGID_00000037652212410715828660000004042460515843495296_);}
	.st19{fill-rule:evenodd;clip-rule:evenodd;fill:url(#SVGID_00000048468988373671012100000010210944461351060119_);}
	.st20{fill-rule:evenodd;clip-rule:evenodd;fill:#CD9A2A;}
	.st21{fill-rule:evenodd;clip-rule:evenodd;fill:url(#SVGID_00000017491103761996675040000015706179656426507930_);}
	.st22{fill-rule:evenodd;clip-rule:evenodd;fill:#ECB84F;}
	.st23{fill:url(#SVGID_00000080186348094184383900000011055111351982203782_);}
	.st24{fill:none;stroke:url(#SVGID_00000178182582219694724180000013431620054060761990_);stroke-width:0.2088;stroke-opacity:0.4;}
	.st25{fill:none;stroke:#326AD5;stroke-width:0.522;}
	.st26{fill-rule:evenodd;clip-rule:evenodd;fill:#3156AA;}
	.st27{fill-rule:evenodd;clip-rule:evenodd;fill:url(#SVGID_00000114043849928241316780000017251487064351116424_);}
	
		.st28{fill-rule:evenodd;clip-rule:evenodd;fill:url(#SVGID_00000139283503055124413090000009485803216455335832_);filter:url(#Adobe_OpacityMaskFilter);}
	.st29{mask:url(#mask0_15057_102524_00000183957896919688533790000007856090871324113798_);}
	.st30{fill:url(#SVGID_00000029029045126352834450000000452311880183037874_);}
	.st31{fill:url(#SVGID_00000094618284093659823400000013891094760696091777_);}
	.st32{fill:url(#SVGID_00000069356377064092813310000005448333320659140520_);}
	.st33{fill:url(#SVGID_00000001649307419311130790000006621333720334347152_);}
	.st34{fill:url(#SVGID_00000176757092725280114410000016430592518191554715_);}
	.st35{fill:url(#SVGID_00000097494767554234358150000014459683672403024062_);}
	.st36{fill:url(#SVGID_00000026879457886545809200000013431489059049940412_);}
	.st37{fill:url(#SVGID_00000181062080360877007540000017203134186825422774_);}
	.st38{fill:url(#SVGID_00000164496110322141943460000000462339465888479874_);}
	.st39{fill:url(#SVGID_00000093156475937983086090000017912291360187783853_);}
	.st40{fill:url(#SVGID_00000054956898874450201910000004989768055050712764_);}
	.st41{fill:url(#SVGID_00000140003064880550349740000009956649400381189511_);}
	.st42{fill:url(#SVGID_00000124867435666701536510000007241463738053614231_);}
	.st43{fill:url(#SVGID_00000183966478993590994400000000949096182224050322_);}
	.st44{fill-rule:evenodd;clip-rule:evenodd;fill:url(#SVGID_00000064317697058847307360000016428529533567426471_);}
	.st45{fill:url(#SVGID_00000149343778759712339960000010884923087249807238_);}
	.st46{fill:url(#SVGID_00000108998096512808805370000006714347090615564209_);}
</style>
<g>
	<defs>
		<rect id="SVGID_1_" width="375" height="250"/>
	</defs>
	<clipPath id="SVGID_00000115472447036724911330000014815511480919464123_">
		<use xlink:href="#SVGID_1_"  style="overflow:visible;"/>
	</clipPath>
	<g style="clip-path:url(#SVGID_00000115472447036724911330000014815511480919464123_);">
		
			<linearGradient id="SVGID_00000152949474862468081260000005955537706179051172_" gradientUnits="userSpaceOnUse" x1="101.3121" y1="147.3139" x2="4.9755" y2="243.6423" gradientTransform="matrix(1 0 0 -1 0 252)">
			<stop  offset="0" style="stop-color:#1B54C1;stop-opacity:0.5"/>
			<stop  offset="1" style="stop-color:#4585FF;stop-opacity:0"/>
		</linearGradient>
		<path style="fill:url(#SVGID_00000152949474862468081260000005955537706179051172_);" d="M60.2,74C58.8,74,39.8,9.2,28.8,0
			C28.2,2.2-17.8,1-19,2.8c4.1,4.2,44,59.4,55.2,68.9c3.5,3,7.8,4.6,11.1,6.1C50.7,79.3,58.9,74.5,60.2,74z"/>
		
			<linearGradient id="SVGID_00000181052447822815488240000015888692002936994955_" gradientUnits="userSpaceOnUse" x1="159.9277" y1="107.2487" x2="95.8452" y2="184.5047" gradientTransform="matrix(1 0 0 -1 0 252)">
			<stop  offset="0" style="stop-color:#1B54C1;stop-opacity:0.5"/>
			<stop  offset="1" style="stop-color:#4585FF;stop-opacity:0"/>
		</linearGradient>
		<path style="fill:url(#SVGID_00000181052447822815488240000015888692002936994955_);" d="M136.1,86.3v32.4h-8.5
			c-7.1-8.6-23.4-27.5-31.1-35c-9.3-9-18.5-16.4-24.4-16c-0.2,0-0.4,0.1-0.6,0.1c0.2,0,0.4-0.1,0.6-0.1c8.6-1.1,26.6-3.6,36.7,0.2
			C116.9,71,130.4,81.4,136.1,86.3z"/>
		
			<linearGradient id="SVGID_00000145044225208380981400000004466315866693166755_" gradientUnits="userSpaceOnUse" x1="72.3237" y1="168.8306" x2="27.8891" y2="229.0092" gradientTransform="matrix(1 0 0 -1 0 252)">
			<stop  offset="0" style="stop-color:#4585FF;stop-opacity:0"/>
			<stop  offset="1" style="stop-color:#1B54C1;stop-opacity:0.5"/>
		</linearGradient>
		<path style="fill:url(#SVGID_00000145044225208380981400000004466315866693166755_);" d="M60,74c-3.9,2.8-8.8,3.8-10.7,4
			c4,1.7,17.5,1.2,21.9,0.5c3.5-0.6,10-4.1,12.9-5.7c-2.4-1.6-7.6-5.5-12-5C67.1,67.5,64.8,70.5,60,74z"/>
		
			<linearGradient id="SVGID_00000044167272423526620550000011912713491589997197_" gradientUnits="userSpaceOnUse" x1="284.8708" y1="122.4033" x2="359.6837" y2="1.6532" gradientTransform="matrix(1 0 0 -1 0 252)">
			<stop  offset="0" style="stop-color:#1B54C1;stop-opacity:0.5"/>
			<stop  offset="1" style="stop-color:#4585FF;stop-opacity:0"/>
		</linearGradient>
		<path style="fill:url(#SVGID_00000044167272423526620550000011912713491589997197_);" d="M301.8,159.4
			c29.3,7.2,76.1,62.4,98.2,90.6c-12.3,0-41.4-0.1-58.9-0.6c-18.4-38.1-42.4-67-52.9-77c-8.4-8.1-19.2-10.5-24.2-11
			C272.8,161.3,292.6,155.3,301.8,159.4z"/>
		
			<linearGradient id="SVGID_00000114796233998342047640000017741280782269396873_" gradientUnits="userSpaceOnUse" x1="240.7317" y1="70.9838" x2="315.3156" y2="145.5498" gradientTransform="matrix(1 0 0 -1 0 252)">
			<stop  offset="0" style="stop-color:#4585FF;stop-opacity:0"/>
			<stop  offset="1" style="stop-color:#1B54C1;stop-opacity:0.5"/>
		</linearGradient>
		<path style="fill:url(#SVGID_00000114796233998342047640000017741280782269396873_);" d="M261.4,170.4c2.1-2.7,8-6.7,10.8-8.4
			c-3.6-0.9-12-2.4-17-1.2c-6.3,1.4-10.8,5.5-12.8,7.7c-2,2.2-3.9,2.9-11.4,9.9C252.9,180.5,258.8,173.8,261.4,170.4z"/>
		<g>
			<ellipse class="st6" cx="188.6" cy="222.8" rx="103.6" ry="7.8"/>
		</g>
		
			<linearGradient id="SVGID_00000116927471415584497500000006473136959856777121_" gradientUnits="userSpaceOnUse" x1="237.8886" y1="243.2175" x2="219.3216" y2="206.2851" gradientTransform="matrix(1 0 0 -1 0 252)">
			<stop  offset="0" style="stop-color:#F9FFFF"/>
			<stop  offset="1" style="stop-color:#DDE8FB"/>
		</linearGradient>
		<path style="fill-rule:evenodd;clip-rule:evenodd;fill:url(#SVGID_00000116927471415584497500000006473136959856777121_);" d="
			M224.7,15.8c11.8-9.1,24.1-13.2,27.3-9c3.3,4.2-3.7,15-15.5,24.1c-11.8,9.1-24.1,13.2-27.3,9C205.9,35.7,212.8,24.9,224.7,15.8z"
			/>
		<g>
			<path class="st8" d="M225.6,16.9C235.1,9.5,244.8,6,247.2,9c2.4,3-3.5,11.5-13,18.9c-9.6,7.4-19.2,10.9-21.6,7.9
				C210.2,32.8,216,24.3,225.6,16.9z"/>
		</g>
		<path class="st9" d="M225.6,16.9C235.1,9.5,244.8,6,247.2,9c0.4,0.5,0.5,1.1,0.5,1.8c0-0.4-0.2-0.7-0.4-1
			c-2-2.6-11.3,1.2-20.8,8.5c-9.4,7.3-15.4,15.3-13.4,17.9c0,0.1,0.1,0.1,0.1,0.1c-0.3-0.2-0.5-0.4-0.8-0.6
			C210.2,32.8,216,24.3,225.6,16.9z"/>
		
			<linearGradient id="SVGID_00000138572139001317737160000017555990811429425311_" gradientUnits="userSpaceOnUse" x1="257.1407" y1="226.7697" x2="211.5787" y2="221.1491" gradientTransform="matrix(1 0 0 -1 0 252)">
			<stop  offset="0" style="stop-color:#CDDDFA"/>
			<stop  offset="0.4771" style="stop-color:#86AFFB"/>
			<stop  offset="1" style="stop-color:#A6C1F4"/>
		</linearGradient>
		<path style="fill-rule:evenodd;clip-rule:evenodd;fill:url(#SVGID_00000138572139001317737160000017555990811429425311_);" d="
			M252.3,7.4l4.4,5.7c0.2,0.1,0.3,0.3,0.5,0.5c3.3,4.2-3.7,15-15.5,24.1c-11.8,9.1-24,13.2-27.3,9l-5.4-6.9c0,0,0,0.1,0.1,0.1
			c3.3,4.2,15.5,0.1,27.3-9C247.8,22.2,254.6,11.9,252.3,7.4z"/>
		<g>
			<path class="st11" d="M236.9,20.6c-0.3,0.3-0.8,0.5-1,0.4l-1.4-0.4c-0.2-0.1-0.7,0.1-1,0.4l-0.3,0.2c-0.3,0.3-0.4,0.6-0.2,0.7
				c0.4,0.2,0.7,0.2,1.2,0.6c0.3,0.2,0.9,0.8,0.2,1.4c-0.9,0.8-3.2,0.7-4.3,0.5c-0.2,0-0.7,0.2-1,0.4l-4.6,4.2
				c-0.3,0.3-0.8,0.5-1,0.4l-0.9-0.2c-0.2-0.1-0.1-0.4,0.2-0.7c1.3-1.2,4.2-3.8,4.9-4.5c0.1-0.1,0.2-0.2,0.1-0.2
				c-0.2-0.1-0.6-0.2-0.7-0.3c-0.4-0.2-1.8-1.1-0.9-1.9c0.6-0.5,1.9-0.6,2.5-0.6c0.4,0,0.8,0,1.1,0c0.2,0,0.8,0.1,1,0.1
				c0,0,0.1,0,0.1,0c0,0,0,0,0,0c0,0,0,0,0,0c0,0,0.1,0,0.1-0.1l0.6-0.6c0.3-0.3,0.4-0.6,0.2-0.7l-1.4-0.4c-0.2-0.1-0.1-0.4,0.2-0.7
				l1-0.9c0.3-0.3,0.8-0.5,1-0.4l5.3,1.5c0.2,0.1,0.1,0.4-0.2,0.7L236.9,20.6z M230.1,22.1c0.3-0.3,0.4-0.6,0.1-0.6
				c-1-0.1-3.5-0.3-3.3,0.6c0.2,1.1,4.5,2.2,6.6,1.8c1.7-0.4,0.1-1.5-0.8-1.8c-0.2-0.1-0.5,0.1-0.8,0.4l-0.6,0.6
				c-0.3,0.3-0.8,0.5-1,0.4l-0.9-0.2c-0.2-0.1-0.1-0.4,0.2-0.7L230.1,22.1z"/>
		</g>
		<g>
			
				<linearGradient id="SVGID_00000100384684044064253400000014007848463160911533_" gradientUnits="userSpaceOnUse" x1="170.2695" y1="179.7178" x2="226.9485" y2="46.1447" gradientTransform="matrix(1 0 0 -1 0 252)">
				<stop  offset="0" style="stop-color:#DAE7FF"/>
				<stop  offset="1" style="stop-color:#9DBCF6"/>
				<stop  offset="1" style="stop-color:#9FBDF6"/>
			</linearGradient>
			<path style="fill:url(#SVGID_00000100384684044064253400000014007848463160911533_);" d="M90.1,55.1h207.4
				c5.8,0,10.4,4.7,10.4,10.4v124.6c0,5.8-4.7,10.4-10.4,10.4H90.1c-5.8,0-10.4-4.7-10.4-10.4V65.5C79.7,59.8,84.4,55.1,90.1,55.1z"
				/>
		</g>
		<circle class="st13" cx="283.5" cy="77.4" r="9.4"/>
		<circle class="st14" cx="271.4" cy="77.4" r="9.4"/>
		<path class="st15" d="M277.4,84.6c2-1.7,3.4-4.3,3.4-7.2c0-2.9-1.3-5.5-3.4-7.2c-2.1,1.7-3.4,4.3-3.4,7.2
			C274.1,80.3,275.4,82.9,277.4,84.6z"/>
		
			<linearGradient id="SVGID_00000173866384398950039380000017110131381431799430_" gradientUnits="userSpaceOnUse" x1="66.0624" y1="107.7034" x2="87.9032" y2="64.2574" gradientTransform="matrix(1 0 0 -1 0 252)">
			<stop  offset="0" style="stop-color:#F9FFFF"/>
			<stop  offset="1" style="stop-color:#DDE8FB"/>
		</linearGradient>
		<path style="fill-rule:evenodd;clip-rule:evenodd;fill:url(#SVGID_00000173866384398950039380000017110131381431799430_);" d="
			M81.6,152.5c-13.9-10.8-28.3-15.5-32.1-10.6c-3.8,4.9,4.4,17.6,18.3,28.4c13.9,10.8,28.3,15.5,32.1,10.6
			C103.7,176,95.5,163.3,81.6,152.5z"/>
		<g>
			<path class="st8" d="M80.5,153.9c-11.3-8.7-22.6-12.9-25.4-9.3c-2.8,3.6,4.1,13.5,15.3,22.2c11.3,8.7,22.6,12.9,25.4,9.3
				C98.7,172.5,91.8,162.6,80.5,153.9z"/>
		</g>
		<path class="st9" d="M80.5,153.9c-11.3-8.7-22.6-12.9-25.4-9.3c-0.4,0.6-0.6,1.3-0.6,2.1c0.1-0.4,0.2-0.8,0.4-1.1
			c2.4-3.1,13.3,1.4,24.4,10c11.1,8.6,18.2,18,15.8,21.1c0,0.1-0.1,0.1-0.1,0.2c0.3-0.2,0.6-0.4,0.9-0.7
			C98.7,172.5,91.8,162.6,80.5,153.9z"/>
		
			<linearGradient id="SVGID_00000073723093252453766580000011985047513139251866_" gradientUnits="userSpaceOnUse" x1="43.4131" y1="88.3543" x2="97.0108" y2="81.7423" gradientTransform="matrix(1 0 0 -1 0 252)">
			<stop  offset="0" style="stop-color:#CDDDFA"/>
			<stop  offset="0.4771" style="stop-color:#86AFFB"/>
			<stop  offset="1" style="stop-color:#A6C1F4"/>
		</linearGradient>
		<path style="fill-rule:evenodd;clip-rule:evenodd;fill:url(#SVGID_00000073723093252453766580000011985047513139251866_);" d="
			M49.1,142.6l-5.2,6.7c-0.2,0.2-0.4,0.4-0.5,0.6c-3.8,4.9,4.4,17.6,18.3,28.4c13.9,10.7,28.2,15.5,32.1,10.6l6.3-8.1
			c0,0,0,0.1-0.1,0.1c-3.8,4.9-18.2,0.2-32.1-10.6C54.4,160,46.4,147.9,49.1,142.6z"/>
		<g>
			<path class="st11" d="M67.3,158.2c0.4,0.4,0.9,0.6,1.2,0.5l1.7-0.4c0.3-0.1,0.8,0.1,1.2,0.5l0.3,0.3c0.4,0.3,0.5,0.7,0.3,0.8
				c-0.5,0.2-0.8,0.3-1.5,0.8c-0.3,0.2-1.1,1-0.2,1.7c1.1,0.9,3.7,0.8,5,0.6c0.3,0,0.8,0.2,1.1,0.5l5.5,5c0.4,0.3,0.9,0.6,1.2,0.5
				l1-0.3c0.3-0.1,0.2-0.4-0.2-0.8c-1.5-1.4-4.9-4.5-5.8-5.3c-0.1-0.1-0.2-0.2-0.1-0.3c0.2-0.1,0.7-0.3,0.9-0.4
				c0.5-0.3,2.1-1.3,1-2.2c-0.7-0.6-2.2-0.7-2.9-0.8c-0.5,0-0.9,0-1.3,0c-0.2,0-1,0.2-1.2,0.1c0,0-0.1,0-0.1-0.1c0,0,0,0,0,0
				c0,0,0,0,0,0c0,0-0.1-0.1-0.1-0.1l-0.7-0.7c-0.4-0.4-0.5-0.7-0.2-0.8l1.6-0.5c0.3-0.1,0.2-0.4-0.2-0.8l-1.2-1.1
				c-0.4-0.3-0.9-0.6-1.2-0.5l-6.2,1.7c-0.3,0.1-0.2,0.4,0.2,0.8L67.3,158.2z M75.2,160c-0.4-0.3-0.5-0.7-0.2-0.7
				c1.2-0.2,4.1-0.3,3.9,0.7c-0.2,1.3-5.3,2.6-7.8,2.1c-2-0.5-0.1-1.8,1-2.1c0.2-0.1,0.6,0.1,0.9,0.4l0.8,0.7
				c0.4,0.3,0.9,0.6,1.1,0.5l1-0.3c0.3-0.1,0.2-0.4-0.2-0.8L75.2,160z"/>
		</g>
		
			<linearGradient id="SVGID_00000088092216862327784480000000937413281709937811_" gradientUnits="userSpaceOnUse" x1="291.1517" y1="101.744" x2="291.1517" y2="42.177" gradientTransform="matrix(1 0 0 -1 0 252)">
			<stop  offset="0" style="stop-color:#FFF077"/>
			<stop  offset="1" style="stop-color:#FFFB5F"/>
		</linearGradient>
		<path style="fill-rule:evenodd;clip-rule:evenodd;fill:url(#SVGID_00000088092216862327784480000000937413281709937811_);" d="
			M274.6,156c14.1-9.7,33-6.9,42.1,6.4c9.1,13.3,5.1,31.9-9.1,41.6c-14.1,9.7-33,6.9-42.1-6.4C256.4,184.4,260.5,165.8,274.6,156z"
			/>
		
			<linearGradient id="SVGID_00000001659254881154289230000004903947505010604717_" gradientUnits="userSpaceOnUse" x1="320.5654" y1="79.8678" x2="280.9744" y2="41.8428" gradientTransform="matrix(1 0 0 -1 0 252)">
			<stop  offset="0" style="stop-color:#EEBA55"/>
			<stop  offset="0.2656" style="stop-color:#F8CB74"/>
			<stop  offset="0.5833" style="stop-color:#DCAA48"/>
			<stop  offset="1" style="stop-color:#EEBA55"/>
		</linearGradient>
		<path style="fill-rule:evenodd;clip-rule:evenodd;fill:url(#SVGID_00000001659254881154289230000004903947505010604717_);" d="
			M316.2,161.6L316.2,161.6l0.6,0.8c9.1,13.3,5.1,31.9-9.1,41.6c-14.1,9.7-33,6.9-42.1-6.4c-0.2-0.3-0.4-0.5-0.5-0.8l0,0l4.7,6.8
			l0,0c9.3,12.5,27.7,15,41.5,5.5c13.8-9.5,18-27.5,9.7-40.7l0,0l-0.6-0.9l-3.5-5.1C316.6,162.1,316.4,161.9,316.2,161.6z"/>
		<path class="st20" d="M278.1,161c10.6-7.3,24.6-5.5,32,3.9c-7.3-8.5-20.7-9.9-31.1-2.8c-11,7.6-14.3,21.8-7.4,31.8
			c0.8,1.2,1.8,2.3,2.8,3.3c-1.3-1.1-2.4-2.4-3.4-3.8C263.9,183.1,267.1,168.6,278.1,161z M303.9,198.6L303.9,198.6
			c-1.9,1.3-3.8,2.3-5.8,3C300.1,200.8,302.1,199.8,303.9,198.6z"/>
		
			<linearGradient id="SVGID_00000013161063544267559810000006184654882111434937_" gradientUnits="userSpaceOnUse" x1="291.509" y1="94.3643" x2="291.509" y2="48.8887" gradientTransform="matrix(1 0 0 -1 0 252)">
			<stop  offset="0" style="stop-color:#F8CC56"/>
			<stop  offset="1" style="stop-color:#FFF077"/>
		</linearGradient>
		<path style="fill-rule:evenodd;clip-rule:evenodd;fill:url(#SVGID_00000013161063544267559810000006184654882111434937_);" d="
			M279,162.2c11-7.6,25.5-5.6,32.4,4.5s3.6,24.3-7.4,31.8c-11,7.6-25.5,5.6-32.4-4.5C264.7,184,268,169.8,279,162.2z"/>
		<g>
			<path class="st22" d="M298.6,174.3c0,0,1.3-3.3,1.6-3.8c0.2-0.5-3.3-1.3-4.7-1.3c-1.4,0-8.8,0.2-12,7.9l0,0.1l-2.4,0l-0.4,2.5
				l2,0c-0.1,0.5-0.2,1-0.3,1.5l-2,0l-0.4,2.5l2.3,0c0.2,3.9,2.5,6.4,5.4,7.6c3.5,1.5,7.5,0.2,9.1-0.6l-0.3-3.8
				c-0.8,0.4-3,1.2-5.7,0.5c-1.7-0.4-2.9-1.7-3.2-3.6l8.9,0.1l0.4-2.5l-9.4-0.1c0.1-0.5,0.2-1,0.3-1.5l9.3,0.1l0.4-2.5l-8.8-0.1
				c0.1-0.2,0.1-0.3,0.2-0.5C291.2,172.5,296.3,173.3,298.6,174.3z"/>
		</g>
		<g>
			
				<linearGradient id="SVGID_00000183952002380911895320000001156153347635978145_" gradientUnits="userSpaceOnUse" x1="94.0946" y1="136.8995" x2="123.2479" y2="112.4385" gradientTransform="matrix(1 0 0 -1 0 252)">
				<stop  offset="0" style="stop-color:#FFFFFF"/>
				<stop  offset="1" style="stop-color:#AAC5F8"/>
			</linearGradient>
			<path style="fill:url(#SVGID_00000183952002380911895320000001156153347635978145_);" d="M96.8,116.8h24.9c1.2,0,2.1,0.9,2.1,2.1
				v17.9c0,1.2-0.9,2.1-2.1,2.1H96.8c-1.2,0-2.1-0.9-2.1-2.1v-17.9C94.8,117.8,95.7,116.8,96.8,116.8z"/>
		</g>
		
			<linearGradient id="SVGID_00000075860085856449430700000017646778924020095655_" gradientUnits="userSpaceOnUse" x1="125.3176" y1="123.2933" x2="111.0166" y2="124.0463" gradientTransform="matrix(1 0 0 -1 0 252)">
			<stop  offset="0" style="stop-color:#6C9DF7"/>
			<stop  offset="1" style="stop-color:#6C9DF7;stop-opacity:0"/>
		</linearGradient>
		
			<path style="fill:none;stroke:url(#SVGID_00000075860085856449430700000017646778924020095655_);stroke-width:0.2088;stroke-opacity:0.4;" d="
			M96.8,116.9h24.9c1.1,0,2,0.9,2,2v17.9c0,1.1-0.9,2-2,2H96.8c-1.1,0-2-0.9-2-2v-17.9C94.9,117.8,95.7,116.9,96.8,116.9z"/>
		<path class="st25" d="M123.9,124.3h-10.5v7.4"/>
		<path class="st25" d="M114.2,117.1l-4.6,4.1v2.6"/>
		<path class="st25" d="M103.4,116.8l5.1,4.6v2.8H94.8"/>
		<path class="st25" d="M94.8,131.7H108l0.8,0.8v1.8l-4.6,4.6"/>
		<path class="st25" d="M123.9,131.7h-13.3l-0.8,0.8v1.8l4.6,4.6"/>
		<path class="st25" d="M105,124.3v7.4"/>
		<path class="st25" d="M123.9,124.3h-10.5v7.4"/>
		<path class="st25" d="M114.2,117.1l-4.6,4.1v2.6"/>
		<path class="st25" d="M103.4,116.8l5.1,4.6v2.8H94.8"/>
		<path class="st25" d="M94.8,131.7H108l0.8,0.8v1.8l-4.6,4.6"/>
		<path class="st25" d="M123.9,131.7h-13.3l-0.8,0.8v1.8l4.6,4.6"/>
		<path class="st25" d="M105,124.3v7.4"/>
		<path class="st26" d="M159.7,104.9h71.4c5.6,0,10.3,4.6,10.3,10.3v8.4c0,5.6-4.6,10.3-10.3,10.3h-71.4c-5.6,0-10.3-4.6-10.3-10.3
			v-8.4C149.4,109.6,154,104.9,159.7,104.9z"/>
		<g>
			
				<linearGradient id="SVGID_00000054229558923241615120000011700561669279804324_" gradientUnits="userSpaceOnUse" x1="239.3459" y1="109.6489" x2="152.2819" y2="91.8459" gradientTransform="matrix(1 0 0 -1 0 252)">
				<stop  offset="0" style="stop-color:#CDDDFA"/>
				<stop  offset="0.4771" style="stop-color:#86AFFB"/>
				<stop  offset="1" style="stop-color:#A6C1F4"/>
			</linearGradient>
			<path style="fill-rule:evenodd;clip-rule:evenodd;fill:url(#SVGID_00000054229558923241615120000011700561669279804324_);" d="
				M243.2,135.6v6.6c0,0.6,0.1,1.2,0.1,1.7c0,19.3-21.5,35-48.1,35c-26.6,0-48.1-15.7-48.1-35c0-0.3,0-0.6,0-0.9v0v-8.3
				c0.7,18.9,21.9,34.1,48.1,34.1C220.9,168.9,242,154.1,243.2,135.6z M147.1,133v-0.8h0L147.1,133z"/>
			<defs>
				<filter id="Adobe_OpacityMaskFilter" filterUnits="userSpaceOnUse" x="149.4" y="115.8" width="90.1" height="79.6">
					<feColorMatrix  type="matrix" values="1 0 0 0 0  0 1 0 0 0  0 0 1 0 0  0 0 0 1 0"/>
				</filter>
			</defs>
			
				<mask maskUnits="userSpaceOnUse" x="149.4" y="115.8" width="90.1" height="79.6" id="mask0_15057_102524_00000183957896919688533790000007856090871324113798_">
				
					<linearGradient id="SVGID_00000085245931387296095970000016690175539252199310_" gradientUnits="userSpaceOnUse" x1="205.2732" y1="128.0363" x2="175.3592" y2="75.6353" gradientTransform="matrix(1 0 0 -1 0 252)">
					<stop  offset="0" style="stop-color:#EEBA55"/>
					<stop  offset="0.2656" style="stop-color:#F8CB74"/>
					<stop  offset="0.5833" style="stop-color:#DCAA48"/>
					<stop  offset="1" style="stop-color:#EEBA55"/>
				</linearGradient>
				
					<path style="fill-rule:evenodd;clip-rule:evenodd;fill:url(#SVGID_00000085245931387296095970000016690175539252199310_);filter:url(#Adobe_OpacityMaskFilter);" d="
					M243.2,135.6v6.6c0,0.6,0.1,1.2,0.1,1.7c0,19.3-21.5,35-48.1,35c-26.6,0-48.1-15.7-48.1-35c0-0.3,0-0.6,0-0.9v0v-8.3
					c0.7,18.9,21.9,34.1,48.1,34.1C220.9,168.9,242,154.1,243.2,135.6z M147.1,133v-0.8h0L147.1,133z"/>
			</mask>
			<g class="st29">
				
					<linearGradient id="SVGID_00000091013431099023789730000013127502963264622763_" gradientUnits="userSpaceOnUse" x1="150.3022" y1="96.3487" x2="149.4062" y2="96.3407" gradientTransform="matrix(1 0 0 -1 0 252)">
					<stop  offset="0" style="stop-color:#6C9EFC;stop-opacity:0"/>
					<stop  offset="1" style="stop-color:#6C9EFC"/>
				</linearGradient>
				
					<rect x="149.4" y="115.8" style="fill:url(#SVGID_00000091013431099023789730000013127502963264622763_);" width="0.9" height="79.6"/>
				
					<linearGradient id="SVGID_00000183933897893745069390000010674544805589228167_" gradientUnits="userSpaceOnUse" x1="157.1652" y1="96.3487" x2="156.2692" y2="96.3407" gradientTransform="matrix(1 0 0 -1 0 252)">
					<stop  offset="0" style="stop-color:#6C9EFC;stop-opacity:0"/>
					<stop  offset="1" style="stop-color:#6C9EFC"/>
				</linearGradient>
				
					<rect x="156.2" y="115.8" style="fill:url(#SVGID_00000183933897893745069390000010674544805589228167_);" width="0.9" height="79.6"/>
				
					<linearGradient id="SVGID_00000109714094066656977700000015346812863230760579_" gradientUnits="userSpaceOnUse" x1="164.0291" y1="96.3487" x2="163.1321" y2="96.3407" gradientTransform="matrix(1 0 0 -1 0 252)">
					<stop  offset="0" style="stop-color:#6C9EFC;stop-opacity:0"/>
					<stop  offset="1" style="stop-color:#6C9EFC"/>
				</linearGradient>
				
					<rect x="163.1" y="115.8" style="fill:url(#SVGID_00000109714094066656977700000015346812863230760579_);" width="0.9" height="79.6"/>
				
					<linearGradient id="SVGID_00000070839806623074759840000008584235815951800463_" gradientUnits="userSpaceOnUse" x1="170.8921" y1="96.3487" x2="169.9951" y2="96.3407" gradientTransform="matrix(1 0 0 -1 0 252)">
					<stop  offset="0" style="stop-color:#6C9EFC;stop-opacity:0"/>
					<stop  offset="1" style="stop-color:#6C9EFC"/>
				</linearGradient>
				
					<rect x="170" y="115.8" style="fill:url(#SVGID_00000070839806623074759840000008584235815951800463_);" width="0.9" height="79.6"/>
				
					<linearGradient id="SVGID_00000104685548537197886560000006533084355540109451_" gradientUnits="userSpaceOnUse" x1="177.7552" y1="96.3487" x2="176.8592" y2="96.3407" gradientTransform="matrix(1 0 0 -1 0 252)">
					<stop  offset="0" style="stop-color:#6C9EFC;stop-opacity:0"/>
					<stop  offset="1" style="stop-color:#6C9EFC"/>
				</linearGradient>
				
					<rect x="176.8" y="115.8" style="fill:url(#SVGID_00000104685548537197886560000006533084355540109451_);" width="0.9" height="79.6"/>
				
					<linearGradient id="SVGID_00000105412591491019577650000008758992751119123847_" gradientUnits="userSpaceOnUse" x1="184.6182" y1="96.3487" x2="183.7222" y2="96.3407" gradientTransform="matrix(1 0 0 -1 0 252)">
					<stop  offset="0" style="stop-color:#6C9EFC;stop-opacity:0"/>
					<stop  offset="1" style="stop-color:#6C9EFC"/>
				</linearGradient>
				
					<rect x="183.7" y="115.8" style="fill:url(#SVGID_00000105412591491019577650000008758992751119123847_);" width="0.9" height="79.6"/>
				
					<linearGradient id="SVGID_00000114779260863242311490000002935554445787991219_" gradientUnits="userSpaceOnUse" x1="191.4821" y1="96.3487" x2="190.5851" y2="96.3407" gradientTransform="matrix(1 0 0 -1 0 252)">
					<stop  offset="0" style="stop-color:#6C9EFC;stop-opacity:0"/>
					<stop  offset="1" style="stop-color:#6C9EFC"/>
				</linearGradient>
				
					<rect x="190.6" y="115.8" style="fill:url(#SVGID_00000114779260863242311490000002935554445787991219_);" width="0.9" height="79.6"/>
				
					<linearGradient id="SVGID_00000073699383930021913000000011635218930719447450_" gradientUnits="userSpaceOnUse" x1="198.3451" y1="96.3487" x2="197.4481" y2="96.3407" gradientTransform="matrix(1 0 0 -1 0 252)">
					<stop  offset="0" style="stop-color:#6C9EFC;stop-opacity:0"/>
					<stop  offset="1" style="stop-color:#6C9EFC"/>
				</linearGradient>
				
					<rect x="197.4" y="115.8" style="fill:url(#SVGID_00000073699383930021913000000011635218930719447450_);" width="0.9" height="79.6"/>
				
					<linearGradient id="SVGID_00000106109567870649463110000010856101133554417802_" gradientUnits="userSpaceOnUse" x1="205.2082" y1="96.3487" x2="204.3122" y2="96.3407" gradientTransform="matrix(1 0 0 -1 0 252)">
					<stop  offset="0" style="stop-color:#6C9EFC;stop-opacity:0"/>
					<stop  offset="1" style="stop-color:#6C9EFC"/>
				</linearGradient>
				
					<rect x="204.3" y="115.8" style="fill:url(#SVGID_00000106109567870649463110000010856101133554417802_);" width="0.9" height="79.6"/>
				
					<linearGradient id="SVGID_00000002375457290671960340000002795431672013359513_" gradientUnits="userSpaceOnUse" x1="212.0701" y1="96.3487" x2="211.1731" y2="96.3407" gradientTransform="matrix(1 0 0 -1 0 252)">
					<stop  offset="0" style="stop-color:#6C9EFC;stop-opacity:0"/>
					<stop  offset="1" style="stop-color:#6C9EFC"/>
				</linearGradient>
				
					<rect x="211.1" y="115.8" style="fill:url(#SVGID_00000002375457290671960340000002795431672013359513_);" width="0.9" height="79.6"/>
				
					<linearGradient id="SVGID_00000040574588157129068820000013262988810718166933_" gradientUnits="userSpaceOnUse" x1="218.9331" y1="96.3487" x2="218.0361" y2="96.3407" gradientTransform="matrix(1 0 0 -1 0 252)">
					<stop  offset="0" style="stop-color:#6C9EFC;stop-opacity:0"/>
					<stop  offset="1" style="stop-color:#6C9EFC"/>
				</linearGradient>
				
					<rect x="218" y="115.8" style="fill:url(#SVGID_00000040574588157129068820000013262988810718166933_);" width="0.9" height="79.6"/>
				
					<linearGradient id="SVGID_00000135661391379906150110000010924954645338480302_" gradientUnits="userSpaceOnUse" x1="225.7962" y1="96.3487" x2="224.9002" y2="96.3407" gradientTransform="matrix(1 0 0 -1 0 252)">
					<stop  offset="0" style="stop-color:#6C9EFC;stop-opacity:0"/>
					<stop  offset="1" style="stop-color:#6C9EFC"/>
				</linearGradient>
				
					<rect x="224.9" y="115.8" style="fill:url(#SVGID_00000135661391379906150110000010924954645338480302_);" width="0.9" height="79.6"/>
				
					<linearGradient id="SVGID_00000042012046656818760770000001724445171816062641_" gradientUnits="userSpaceOnUse" x1="232.6592" y1="96.3487" x2="231.7632" y2="96.3407" gradientTransform="matrix(1 0 0 -1 0 252)">
					<stop  offset="0" style="stop-color:#6C9EFC;stop-opacity:0"/>
					<stop  offset="1" style="stop-color:#6C9EFC"/>
				</linearGradient>
				
					<rect x="231.7" y="115.8" style="fill:url(#SVGID_00000042012046656818760770000001724445171816062641_);" width="0.9" height="79.6"/>
				
					<linearGradient id="SVGID_00000056386866175300884280000009891617162457228984_" gradientUnits="userSpaceOnUse" x1="239.5231" y1="96.3487" x2="238.6261" y2="96.3407" gradientTransform="matrix(1 0 0 -1 0 252)">
					<stop  offset="0" style="stop-color:#6C9EFC;stop-opacity:0"/>
					<stop  offset="1" style="stop-color:#6C9EFC"/>
				</linearGradient>
				
					<rect x="238.6" y="115.8" style="fill:url(#SVGID_00000056386866175300884280000009891617162457228984_);" width="0.9" height="79.6"/>
			</g>
			
				<linearGradient id="SVGID_00000137810359716107929660000008902072430915875775_" gradientUnits="userSpaceOnUse" x1="195.187" y1="153.0796" x2="195.187" y2="83.121" gradientTransform="matrix(1 0 0 -1 0 252)">
				<stop  offset="0" style="stop-color:#FFE177"/>
				<stop  offset="1.000000e-04" style="stop-color:#E1ECFC"/>
				<stop  offset="1" style="stop-color:#DFEAFC"/>
			</linearGradient>
			<path style="fill-rule:evenodd;clip-rule:evenodd;fill:url(#SVGID_00000137810359716107929660000008902072430915875775_);" d="
				M168.3,104.9c-12.8,6.3-21.2,16.9-21.2,29c0,19.3,21.5,35,48.1,35s48.1-15.7,48.1-35c0-12.1-8.4-22.7-21.2-29H168.3z"/>
			<g>
				<path class="st8" d="M184.6,104.9c-18.2,3.2-31.7,14.7-31.7,28.4c0,16.2,18.9,29.3,42.2,29.3c23.3,0,42.2-13.1,42.2-29.3
					c0-13.7-13.5-25.1-31.7-28.4H184.6z"/>
			</g>
			<path class="st9" d="M175.5,104.9c-13.4,4.9-22.6,14.7-22.6,25.9c0,0.4,0,0.7,0,1.1c0.9-13,14-23.9,31.6-27H175.5z M205.6,104.9
				c17.7,3.2,30.9,14.1,31.6,27.3c0-0.4,0-0.9,0-1.4c0-11.3-9.2-21-22.6-25.9H205.6z"/>
			<g>
				<path class="st11" d="M214.1,124.2l-13.4-0.1l0,2.8c4.8,0.3,5.7,0.2,11.3,0.7c2.3,0.2,8.5,1,8.3,2.4c-0.3,2-15.2,2.7-19.4,2.8
					l0,11.5l-10.2-0.1c-0.1-1.3,0.2-10.9-0.3-11.3c-0.7-0.2-4.6-0.2-5.8-0.3c-2.9-0.2-13.9-1.1-13.7-2.8c0.2-1.2,5.7-1.9,8.2-2.2
					c1.8-0.2,3.6-0.3,5.4-0.4c1.1-0.1,5.1-0.1,5.7-0.3l0.1-0.1c0,0,0,0,0-0.1c0,0,0-0.1,0-0.1l-0.1-2.5l-13.4-0.1l-0.1-4.4l37.1,0.3
					L214.1,124.2z M190.4,127.4c-2.2-0.1-20.9,0.8-14.9,2.5c6.5,1.9,32.6,1.9,40,0.2c7.1-1.6-12-3-14.8-2.7l0,3.3l-10.2-0.1
					L190.4,127.4z"/>
			</g>
			<g>
				<path class="st11" d="M184,152.9c-1.2,0-1.3-0.5-1.3-1.5v-3.9h-2.2v4.1c0,1.8,1,2.6,3.4,2.6c2.1,0,3.5-0.7,3.5-2.6l0-4.2h-2.2v4
					C185.2,152.5,185,152.9,184,152.9z M191.8,148.7c0.8,0,1.1,0.3,1.1,0.9l2-0.2c-0.1-1.7-1.6-2-3.1-2c-1.7,0-3.2,0.7-3.2,2.1
					c0,1.5,1.5,1.8,2.7,2c0.8,0.2,1.5,0.3,1.5,0.8c0,0.5-0.5,0.7-1.1,0.7c-1.1,0-1.3-0.5-1.4-1.1l-2,0.2c0.1,1.9,2,2.1,3.3,2.1
					c1.7,0,3.3-0.6,3.3-2.2c0-1.4-1.5-1.8-2.7-2c-0.9-0.2-1.6-0.3-1.6-0.8C190.8,148.9,191.2,148.7,191.8,148.7z M199.4,154.2
					c3,0,4.3-1.4,4.3-3.4c0-2-1.2-3.2-4.1-3.2h-3.1v6.6H199.4z M198.7,152.9v-4h0.8c1.5,0,2,0.5,2,2c0,1.2-0.4,2.1-2.2,2.1H198.7z
					 M208.8,154.2V149h2.4v-1.4h-7v1.4h2.4v5.2H208.8z"/>
			</g>
		</g>
		
			<linearGradient id="SVGID_00000153670775203724884740000012453926453675564165_" gradientUnits="userSpaceOnUse" x1="195.9999" y1="147.1268" x2="195.7969" y2="137.0609" gradientTransform="matrix(1 0 0 -1 0 252)">
			<stop  offset="0" style="stop-color:#002131"/>
			<stop  offset="1" style="stop-color:#002131;stop-opacity:0"/>
		</linearGradient>
		<path style="fill:url(#SVGID_00000153670775203724884740000012453926453675564165_);" d="M231.5,104.9h-71.4
			c-5.6,0-10.3,4.6-10.3,10.3h91.9C241.8,109.5,237.1,104.9,231.5,104.9z"/>
		
			<linearGradient id="SVGID_00000160183484631065505970000008013801183325549957_" gradientUnits="userSpaceOnUse" x1="195.9562" y1="147.1291" x2="195.7532" y2="130.2001" gradientTransform="matrix(1 0 0 -1 0 252)">
			<stop  offset="0" style="stop-color:#0C3694"/>
			<stop  offset="1" style="stop-color:#3156AA;stop-opacity:0"/>
		</linearGradient>
		<path style="fill:url(#SVGID_00000160183484631065505970000008013801183325549957_);" d="M231.5,104.9h-71.4
			c-5.6,0-10.3,4.6-10.3,10.3v6.6h91.9v-6.6C241.8,109.5,237.1,104.9,231.5,104.9z"/>
	</g>
</g>
</svg>
