<svg xmlns="http://www.w3.org/2000/svg" width="30" height="30" viewBox="0 0 44 44">
	<g id="nor3" transform="translate(-8895 4055)">
		<rect id="矩形_1101" data-name="矩形 1101" width="44" height="44" transform="translate(8895 -4055)" fill="none"></rect>
		<path id="路径_3251" data-name="路径 3251" d="M11.546,34.162H8.6a.78.78,0,0,1-.78-.78V20.154a.78.78,0,0,1,.78-.78h2.947a.78.78,0,0,1,.78.78V33.381a.78.78,0,0,1-.78.78" transform="translate(8897.952 -4054.174)" fill="#83919e"></path>
		<path id="路径_3252" data-name="路径 3252" d="M6.07.35.167,7.984A.778.778,0,0,0,.733,9.247H12.806a.778.778,0,0,0,.567-1.263L7.47.35a.874.874,0,0,0-1.4,0" transform="translate(8901.255 -4045.989)" fill="#83919e"></path>
		<path id="路径_3253" data-name="路径 3253" d="M39.679,0h2.947a.78.78,0,0,1,.78.78V14.008a.78.78,0,0,1-.78.78H39.679a.78.78,0,0,1-.78-.78V.78a.78.78,0,0,1,.78-.78" transform="translate(8884.822 -4045.989)" fill="#616f7b"></path>
		<path id="路径_3254" data-name="路径 3254" d="M38.55,37.864l5.9-7.634a.778.778,0,0,0-.566-1.263H31.814a.778.778,0,0,0-.567,1.263l5.9,7.634a.874.874,0,0,0,1.4,0" transform="translate(8888.125 -4058.226)" fill="#616f7b"></path>
	</g>
</svg>