<svg xmlns="http://www.w3.org/2000/svg" width="30" height="30" viewBox="0 0 44 44">
	<g id="nor4" transform="translate(-8960 4055)">
		<rect id="矩形_1102" data-name="矩形 1102" width="44" height="44" transform="translate(8960 -4055)" fill="none"></rect>
		<path id="路径_3255" data-name="路径 3255" d="M39.642,22.26V33.769a1.084,1.084,0,0,1-1.084,1.084,1.1,1.1,0,0,1-1.1-1.084l.018-11.509h0L37.454,37.1h1.308a4.681,4.681,0,0,0,4.681-4.681V22.26Z" transform="translate(8952.874 -4055.765)" fill="#616f7b"></path>
		<path id="路径_3256" data-name="路径 3256" d="M3.482,0A3.482,3.482,0,0,0,0,3.5L.137,25.155A3.074,3.074,0,0,0,3.21,28.229l19.45.071V3.482A3.482,3.482,0,0,0,19.178,0ZM13.863,14.916H5.224V12.748h8.639Zm3.657-5.882H5.225V6.866H17.519Z" transform="translate(8967.686 -4046.966)" fill="#83919e"></path>
	</g>
</svg>