<svg xmlns="http://www.w3.org/2000/svg" xmlns:xlink="http://www.w3.org/1999/xlink" width="36" height="36" viewBox="0 0 36 36">
  <defs>
    <clipPath id="clip-path">
      <rect id="矩形_1066" data-name="矩形 1066" width="36" height="36" transform="translate(618 706)" fill="#fff" stroke="#707070" stroke-width="1"/>
    </clipPath>
  </defs>
  <g id="icon01" transform="translate(-618 -706)" clip-path="url(#clip-path)">
    <path id="icon-rise" d="M30.793,26.992H23.945a1.216,1.216,0,0,1,0-2.432h3.824L20.92,17.712,13.48,25.2a1.335,1.335,0,0,1-1.008.384A1.289,1.289,0,0,1,11.5,25.2L.456,14.16a1.324,1.324,0,0,1,1.872-1.872l10.16,10.144,7.52-7.52a1.333,1.333,0,0,1,1.872,0,.626.626,0,0,1,.128.16l7.568,7.568v-3.7a1.216,1.216,0,1,1,2.432,0v6.832A1.215,1.215,0,0,1,30.793,26.992Z" transform="translate(619.959 704.552)" fill="#f23f3f"/>
  </g>
</svg>
