<svg xmlns="http://www.w3.org/2000/svg" xmlns:xlink="http://www.w3.org/1999/xlink" width="36" height="36" viewBox="0 0 36 36">
  <defs>
    <clipPath id="clip-path">
      <rect id="矩形_1062" data-name="矩形 1062" width="36" height="36" transform="translate(618 706)" fill="#fff" stroke="#707070" stroke-width="1"/>
    </clipPath>
  </defs>
  <g id="icon02" transform="translate(-618 -706)" clip-path="url(#clip-path)">
    <path id="icon-rise" d="M30.793,11.9H23.945a1.216,1.216,0,1,0,0,2.432h3.824l-6.848,6.848L13.481,13.7a1.336,1.336,0,0,0-1.008-.384,1.289,1.289,0,0,0-.976.384L.456,24.736a1.324,1.324,0,1,0,1.872,1.872l10.16-10.144,7.52,7.52a1.333,1.333,0,0,0,1.872,0,.626.626,0,0,0,.128-.16l7.568-7.568v3.7a1.216,1.216,0,1,0,2.432,0V13.12A1.216,1.216,0,0,0,30.793,11.9Z" transform="translate(619.959 704.552)" fill="#28b998"/>
  </g>
</svg>
