<svg xmlns="http://www.w3.org/2000/svg" xmlns:xlink="http://www.w3.org/1999/xlink" width="30" height="30" viewBox="0 0 30 30">
  <defs>
    <clipPath id="clip-path">
      <rect id="矩形_1068" data-name="矩形 1068" width="30" height="30" transform="translate(29 1225)" fill="#D04241" stroke="#D04241" stroke-width="1"/>
    </clipPath>
  </defs>
  <g id="shouyi" transform="translate(-29 -1225)" clip-path="url(#clip-path)">
    <g id="收益" transform="translate(30.734 1226.734)">
      <path id="路径_3184" data-name="路径 3184" d="M4,10.883V6.212A2.217,2.217,0,0,1,6.212,4H20.32a2.217,2.217,0,0,1,2.217,2.217V20.32a2.217,2.217,0,0,1-2.217,2.217H6.212A2.217,2.217,0,0,1,4,20.32V17.443a.806.806,0,0,0-1.612,0V20.32a3.829,3.829,0,0,0,3.829,3.829H20.32a3.829,3.829,0,0,0,3.829-3.829V6.212A3.829,3.829,0,0,0,20.32,2.383H6.212A3.829,3.829,0,0,0,2.383,6.212v4.671a.806.806,0,1,0,1.612,0Z" transform="translate(0 0)" fill="#D04241"/>
      <path id="路径_3185" data-name="路径 3185" d="M18.562,10.939H16.235a.806.806,0,1,1,0-1.612h3.987a.907.907,0,0,1,.907.907v3.782a.806.806,0,1,1-1.612,0v-1.74l-4.442,4.664a.928.928,0,0,1-.125.111,1.008,1.008,0,0,1-1.411-.2L11.11,13.606,6.54,18.153A.806.806,0,0,1,5.4,17.01l5.063-5.037a1.008,1.008,0,0,1,1.518.111L14.4,15.309l4.162-4.369Z" transform="translate(-0.768 -1.906)" fill="#D04241"/>
    </g>
  </g>
</svg>
