<svg xmlns="http://www.w3.org/2000/svg" xmlns:xlink="http://www.w3.org/1999/xlink" width="30" height="30" viewBox="0 0 30 30">
  <defs>
    <clipPath id="clip-path">
      <rect id="矩形_1069" data-name="矩形 1069" width="30" height="30" transform="translate(29 1268)" fill="#28b998" stroke="#707070" stroke-width="1"/>
    </clipPath>
  </defs>
  <g id="yue" transform="translate(-29 -1268)" clip-path="url(#clip-path)">
    <g id="货币_美金" data-name="货币 美金" transform="translate(28.506 1267.506)">
      <path id="路径_3186" data-name="路径 3186" d="M15.494,28.128A12.634,12.634,0,1,1,28.128,15.494,12.648,12.648,0,0,1,15.494,28.128Zm0-23.505A10.871,10.871,0,1,0,26.366,15.494,10.883,10.883,0,0,0,15.494,4.623Z" transform="translate(0 0)" fill="#28b998"/>
      <path id="路径_3187" data-name="路径 3187" d="M17.3,17.764a3.009,3.009,0,1,1,3.009-3.009.881.881,0,1,1-1.763,0A1.246,1.246,0,1,0,17.3,16a.882.882,0,0,1,0,1.763Z" transform="translate(-1.803 -1.402)" fill="#28b998"/>
      <path id="路径_3188" data-name="路径 3188" d="M17.213,21.631a2.928,2.928,0,0,1-2.925-2.925.881.881,0,1,1,1.763,0,1.162,1.162,0,1,0,1.162-1.161.882.882,0,0,1,0-1.763,2.925,2.925,0,0,1,0,5.85Zm0-8.341a.881.881,0,0,1-.881-.881V11.233a.882.882,0,0,1,1.763,0v1.175A.882.882,0,0,1,17.213,13.29Z" transform="translate(-1.803 -1.182)" fill="#28b998"/>
      <path id="路径_3189" data-name="路径 3189" d="M17.7,24.82a.882.882,0,0,1-.881-.881V22.763a.881.881,0,0,1,1.763,0v1.175A.881.881,0,0,1,17.7,24.82Z" transform="translate(-2.201 -3)" fill="#28b998"/>
    </g>
  </g>
</svg>
