<svg xmlns="http://www.w3.org/2000/svg" width="30" height="30" viewBox="0 0 44 44">
	<g id="pre1" transform="translate(-8683 4055)">
		<rect id="矩形_1097" data-name="矩形 1097" width="44" height="44" transform="translate(8683 -4055)" fill="none"></rect>
		<path id="路径_3247" data-name="路径 3247" d="M10.839.972.349,17.124a2.135,2.135,0,0,0,1.79,3.3H24.044a2.135,2.135,0,0,0,1.743-3.367L14.373.9a2.135,2.135,0,0,0-3.534.07" transform="translate(8686.222 -4043.211)" fill="#276dff"></path>
		<path id="路径_3248" data-name="路径 3248" d="M52.335,17.055,40.92.9a2.135,2.135,0,0,0-3.534.07l-2.1,3.237L46.741,20.422h3.851a2.135,2.135,0,0,0,1.744-3.367" transform="translate(8671.048 -4043.211)" fill="#3263cb"></path>
	</g>
</svg>