<svg xmlns="http://www.w3.org/2000/svg" width="30" height="30" viewBox="0 0 44 44">
	<g id="nor5" transform="translate(-9021 4055)">
		<rect id="矩形_1103" data-name="矩形 1103" width="44" height="44" transform="translate(9021 -4055)" fill="none"></rect>
		<path id="路径_3257" data-name="路径 3257" d="M29.847,1.238a4.021,4.021,0,0,0-1.218-.93A4.494,4.494,0,0,0,27.137,0a3.848,3.848,0,0,0-2,.561q-.738.384-2.052,1.09T20.419,3.066Q18.88,3.9,17.148,4.8H31.707Z" transform="translate(9021.491 -4047.658)" fill="#616f7b"></path>
		<path id="路径_3258" data-name="路径 3258" d="M29.118,13.467A2.9,2.9,0,0,0,26.2,10.549H2.918A2.815,2.815,0,0,0,.85,11.4,2.814,2.814,0,0,0,0,13.467v16a2.728,2.728,0,0,0,.24,1.139,3.015,3.015,0,0,0,.658.93,3.056,3.056,0,0,0,.962.625,3,3,0,0,0,1.154.225H26.3a2.747,2.747,0,0,0,2.02-.85,2.824,2.824,0,0,0,.593-.93,3.078,3.078,0,0,0,.209-1.139V23.714H21.24a2.984,2.984,0,0,1,0-5.968h7.878Z" transform="translate(9028.441 -4051.934)" fill="#83919e"></path>
		<path id="路径_3259" data-name="路径 3259" d="M33.3,26.591a1.584,1.584,0,1,0,1.584-1.584A1.583,1.583,0,0,0,33.3,26.591" transform="translate(9014.942 -4057.794)" fill="#83919e"></path>
	</g>
</svg>