<svg xmlns="http://www.w3.org/2000/svg" xmlns:xlink="http://www.w3.org/1999/xlink" width="48" height="48" viewBox="0 0 48 48">
  <defs>
    <clipPath id="clip-path">
      <circle id="椭圆_51" data-name="椭圆 51" cx="22" cy="22" r="22" transform="translate(8697 -4321)" fill="#f5e3e3"/>
    </clipPath>
  </defs>
  <g id="组_1549" data-name="组 1549" transform="translate(-8695 4323)">
    <g id="组_1548" data-name="组 1548">
      <rect id="矩形_1090" data-name="矩形 1090" width="48" height="48" transform="translate(8695 -4323)" fill="none"/>
      <circle id="椭圆_48" data-name="椭圆 48" cx="24" cy="24" r="24" transform="translate(8695 -4323)" fill="#276dff"/>
      <circle id="椭圆_49" data-name="椭圆 49" cx="8" cy="8" r="8" transform="translate(8711 -4314)" fill="#fff"/>
      <g id="蒙版组_16" data-name="蒙版组 16" clip-path="url(#clip-path)">
        <circle id="椭圆_50" data-name="椭圆 50" cx="19" cy="19" r="19" transform="translate(8700 -4296)" fill="#fff"/>
      </g>
      <path id="矩形_1091" data-name="矩形 1091" d="M8,0h8a0,0,0,0,1,0,0V8a8,8,0,0,1-8,8H8A8,8,0,0,1,0,8V8A8,8,0,0,1,8,0Z" transform="translate(8711 -4314)" fill="#fff"/>
    </g>
    <path id="路径_3246" data-name="路径 3246" d="M-.6-4H2.192l1.4,9.329L.795,7.425-2,5.329Z" transform="translate(8718.205 -4290.212)" fill="#276dff"/>
  </g>
</svg>
